<?xml version="1.0" encoding="utf-8"?>
<!-- Generator: Adobe Illustrator 16.0.0, SVG Export Plug-In . SVG Version: 6.00 Build 0)  -->
<!DOCTYPE svg PUBLIC "-//W3C//DTD SVG 1.1//EN" "http://www.w3.org/Graphics/SVG/1.1/DTD/svg11.dtd">
<svg version="1.1" id="Layer_1" xmlns="http://www.w3.org/2000/svg" xmlns:xlink="http://www.w3.org/1999/xlink" x="0px" y="0px"
	 width="108px" height="108px"  "viewBox="0 0 108 108" enable-background="new 0 0 108 108" xml:space="preserve">
<g>
	<g>
		<path d="M48.553,44.249l16.893,9.753l-16.893,9.751V44.249 M46.553,40.785v26.433l22.893-13.214L46.553,40.785L46.553,40.785z"/>
	</g>
	<g>
		<path d="M54,2c28.673,0,52,23.327,52,52c0,28.673-23.327,52-52,52C25.327,106,2,82.673,2,54C2,25.328,25.327,2,54,2 M54,0
			C24.176,0,0,24.177,0,54s24.176,54,54,54c29.822,0,54-24.178,54-54S83.823,0,54,0L54,0z"/>
	</g>
</g>
</svg>
