<?xml version="1.0" encoding="utf-8"?>
<!-- Generator: Adobe Illustrator 16.0.0, SVG Export Plug-In . SVG Version: 6.00 Build 0)  -->
<!DOCTYPE svg PUBLIC "-//W3C//DTD SVG 1.1//EN" "http://www.w3.org/Graphics/SVG/1.1/DTD/svg11.dtd">
<svg version="1.1" id="Layer_1" xmlns="http://www.w3.org/2000/svg" xmlns:xlink="http://www.w3.org/1999/xlink" x="0px" y="0px"
	 width="79.8px" height="63px" viewBox="0 0 79.8 63" enable-background="new 0 0 79.8 63" xml:space="preserve">
<g>
	<path d="M38.92,0H4.894v63H38.92h1.959h34.026V0H40.879H38.92z M38.879,61H6.893V2h31.986V61z M40.92,2h31.986v59H40.92V2z"/>
	<rect x="11.641" y="9.799" width="22.49" height="2"/>
	<rect x="11.641" y="20.6" width="22.49" height="2"/>
	<rect x="11.641" y="31.399" width="22.49" height="2"/>
	<rect x="11.641" y="42.199" width="22.49" height="2"/>
	<rect x="11.641" y="53" width="22.49" height="2"/>
	<rect x="45.667" y="9.799" width="22.491" height="2"/>
	<rect x="45.667" y="20.6" width="22.491" height="2"/>
	<rect x="45.667" y="31.399" width="22.491" height="2"/>
	<rect x="45.667" y="42.199" width="22.491" height="2"/>
	<rect x="45.667" y="53" width="22.491" height="2"/>
	<rect x="0" y="8.374" width="1.999" height="46.252"/>
	<rect x="77.8" y="8.374" width="2" height="46.252"/>
</g>
</svg>
