<?xml version="1.0" encoding="utf-8"?>
<!-- Generator: Adobe Illustrator 16.0.0, SVG Export Plug-In . SVG Version: 6.00 Build 0)  -->
<!DOCTYPE svg PUBLIC "-//W3C//DTD SVG 1.1//EN" "http://www.w3.org/Graphics/SVG/1.1/DTD/svg11.dtd">
<svg version="1.1" id="Layer_1" xmlns="http://www.w3.org/2000/svg" xmlns:xlink="http://www.w3.org/1999/xlink" x="0px" y="0px"
	 width="64px" height="68.5px" viewBox="0 0 64 68.5" enable-background="new 0 0 64 68.5" xml:space="preserve">
<g>
	<path d="M44.988,0L32.313,12.747l0,0L6.963,38.238l1.408,1.416l25.351-25.492l4.525,4.551L12.896,44.207l-4.525-4.553L8.367,39.66
		l-1.408-1.416L0,64.359l25.971-6.996l-1.408-1.416l0.006-0.006l-4.526-4.552l25.349-25.492l4.526,4.551L24.568,55.941l1.408,1.416
		l25.348-25.492L64,19.119L44.988,0z M2.803,61.541l5.181-19.448l14.159,14.239L2.803,61.541z M14.306,45.624l25.35-25.494
		l4.327,4.352L18.634,49.974L14.306,45.624z M51.324,29.033L35.13,12.747l9.858-9.914l16.195,16.286L51.324,29.033z"/>
	<g>
		<rect y="66.497" width="52.3" height="2.003"/>
	</g>
</g>
</svg>
