<?xml version="1.0" encoding="utf-8"?>
<!-- Generator: Adobe Illustrator 18.1.1, SVG Export Plug-In . SVG Version: 6.00 Build 0)  -->
<svg version="1.1" id="Layer_1" xmlns="http://www.w3.org/2000/svg" xmlns:xlink="http://www.w3.org/1999/xlink" x="0px" y="0px"
	 viewBox="-0.1 382.5 1920.3 2001.7" enable-background="new -0.1 382.5 1920.3 2001.7" xml:space="preserve">
<g>
	<g>
		<polygon fill="none" points="1565.6,2236.8 1772.6,2236.8 1772.6,675.4 1565.6,559.5 		"/>
		<path fill="none" d="M1060.6,1165.5L1060.6,1165.5l0.1-1.2h-0.3l-0.1-5c-3.2-53.8-47.8-95.9-101.8-95.9
			c-55.9,0-101.6,45.5-102.1,101.2h-0.1v1072h204.3V1165.5L1060.6,1165.5z"/>
		<path d="M1565.6,382.5H1539H-0.1v2001.7h501.8v-1220h0.3c0-154,125.2-279.2,279.3-279.2c48.4,0,94.1,12.8,134.2,34.9
			c-115.3,20.4-203.8,120.4-206.2,241.5H709v1222.8h499V1161.4h-0.3c0-2.2,0-4.4-0.1-6.6c0-0.9-0.1-1.6-0.1-2.5l0,0
			c0-0.6-0.1-1.3-0.1-1.9c-7.3-228-197.2-412.6-426.1-412.6c-234.3,0-425.1,189.7-426.7,423.6h-0.3v1075.4H147.4V529.8h1271v1854.3
			h501.8V585.4L1565.6,382.5z M856.3,2236.8v-1072h0.1c0.4-55.9,46.2-101.2,102.1-101.2c54,0,98.5,42.1,101.8,95.9l0.1,5h0.3v1.2
			h-0.1h0.1v1071.3H856.3V2236.8z M1772.6,2236.8h-206.9V559.5l206.9,116V2236.8z"/>
	</g>
</g>
</svg>
