<?xml version="1.0" encoding="utf-8"?>
<!-- Generator: Adobe Illustrator 16.0.0, SVG Export Plug-In . SVG Version: 6.00 Build 0)  -->
<!DOCTYPE svg PUBLIC "-//W3C//DTD SVG 1.1//EN" "http://www.w3.org/Graphics/SVG/1.1/DTD/svg11.dtd">
<svg version="1.1" id="Layer_1" xmlns="http://www.w3.org/2000/svg" xmlns:xlink="http://www.w3.org/1999/xlink" x="0px" y="0px"
	 width="72.5px" height="67px" viewBox="0 0 72.5 67" enable-background="new 0 0 72.5 67" xml:space="preserve">
<g>
	<path d="M51.524,12.006V0H20.976v12.006h-4.234V5H7.736v7.007H0v17.998v26.997h17.03C21.288,63.042,28.311,67,36.25,67
		c7.939,0,14.963-3.958,19.22-9.999H72.5V30.004V12.006H51.524z M22.977,2h26.545v9.999H22.977V2z M9.737,6.999h5.003v5H9.737V6.999
		z M2.001,55.001V32.004h13.764c-1.921,3.402-3.021,7.323-3.021,11.499c0,4.175,1.1,8.097,3.021,11.498H2.001z M36.25,65
		c-11.857,0-21.504-9.644-21.504-21.497c0-11.854,9.647-21.498,21.504-21.498c11.856,0,21.505,9.643,21.505,21.498
		C57.755,55.356,48.106,65,36.25,65z M70.499,55.001H56.735c1.916-3.401,3.021-7.323,3.021-11.498c0-4.176-1.104-8.097-3.021-11.499
		h13.764V55.001z M70.499,30.004H55.47c-4.257-6.042-11.28-9.999-19.22-9.999c-7.939,0-14.962,3.958-19.22,9.999H2.001V14.006
		h68.498V30.004z"/>
	<path d="M36.25,29.004c-7.996,0-14.505,6.504-14.505,14.499s6.509,14.498,14.505,14.498c7.996,0,14.5-6.504,14.5-14.498
		S44.246,29.004,36.25,29.004z M36.25,56.001c-6.896,0-12.503-5.606-12.503-12.498s5.607-12.499,12.503-12.499
		c6.892,0,12.499,5.607,12.499,12.499S43.142,56.001,36.25,56.001z"/>
</g>
</svg>
