<?xml version="1.0" encoding="utf-8"?>
<!-- Generator: Adobe Illustrator 16.0.0, SVG Export Plug-In . SVG Version: 6.00 Build 0)  -->
<!DOCTYPE svg PUBLIC "-//W3C//DTD SVG 1.1//EN" "http://www.w3.org/Graphics/SVG/1.1/DTD/svg11.dtd">
<svg version="1.1" id="Layer_1" xmlns="http://www.w3.org/2000/svg" xmlns:xlink="http://www.w3.org/1999/xlink" x="0px" y="0px"
	 width="72px" height="72px" viewBox="0 0 72 72" enable-background="new 0 0 72 72" xml:space="preserve">
<path d="M72,18V0H54v8H18V0H0v18h8v36H0v18h18v-8H54v8h18V54h-8V18H72z M56,2h14v14h-6V8h-8V2z M56,10h6v6h-6V10z M2,16V2h14v6H8v8
	H2z M16,10v6h-6v-6H16z M16,70H2V56h6v8h8V70z M16,62h-6v-6h6V62z M70,56v14H56v-6h8v-8H70z M56,62v-6h6v6H56z M62,54h-8v8H18v-8h-8
	V18h8v-8H54v8h8V54z"/>
</svg>
