<?xml version="1.0" encoding="utf-8"?>
<!-- Generator: Adobe Illustrator 16.0.0, SVG Export Plug-In . SVG Version: 6.00 Build 0)  -->
<!DOCTYPE svg PUBLIC "-//W3C//DTD SVG 1.1//EN" "http://www.w3.org/Graphics/SVG/1.1/DTD/svg11.dtd">
<svg version="1.1" id="Layer_1" xmlns="http://www.w3.org/2000/svg" xmlns:xlink="http://www.w3.org/1999/xlink" x="0px" y="0px"
	 width="72px" height="72px" viewBox="0 0 72 72" enable-background="new 0 0 72 72" xml:space="preserve">
<g>
	<path d="M54,0H18H0v72h18h36h18V0H54z M2,70V2h14v68H2z M18,70V2h36v68H18z M70,70H56V2h14V70z"/>
	<path d="M29.534,27.285v17.428L44.628,36L29.534,27.285z M31.534,30.75L40.628,36l-9.094,5.25V30.75z"/>
	<rect x="4.5" y="8" width="9" height="2"/>
	<rect x="4.5" y="18.799" width="9" height="2"/>
	<rect x="4.5" y="29.6" width="9" height="2"/>
	<rect x="4.5" y="40.4" width="9" height="2"/>
	<rect x="4.5" y="51.199" width="9" height="2"/>
	<rect x="4.5" y="62" width="9" height="2"/>
	<rect x="58.5" y="8" width="9" height="2"/>
	<rect x="58.5" y="18.799" width="9" height="2"/>
	<rect x="58.5" y="29.6" width="9" height="2"/>
	<rect x="58.5" y="40.4" width="9" height="2"/>
	<rect x="58.5" y="51.199" width="9" height="2"/>
	<rect x="58.5" y="62" width="9" height="2"/>
</g>
</svg>
